<?xml version="1.0" encoding="UTF-8"?>
<svg width="400px" height="400px" viewBox="0 0 400 400" version="1.1" xmlns="http://www.w3.org/2000/svg" xmlns:xlink="http://www.w3.org/1999/xlink">
    <!-- Generator: Sketch 51.2 (57519) - http://www.bohemiancoding.com/sketch -->
    <title>Windows Menu 400x400</title>
    <desc>Created with Sketch.</desc>
    <defs></defs>
    <g id="Windows-Menu-400x400" stroke="none" stroke-width="1" fill="none" fill-rule="evenodd">
        <rect id="bg" fill="#0FBD8C" x="0" y="0" width="400" height="400"></rect>
        <path d="M304.712328,297.65625 C302.977597,297.65625 301.299956,296.965815 300.035758,295.688399 C297.446561,293.053215 297.458208,288.775602 300.064187,286.161364 C322.981228,263.125977 335.598263,232.528034 335.598263,200.003168 C335.598263,167.475171 322.983351,136.882378 300.065809,113.840441 C297.457721,111.224086 297.44606,106.944145 300.035779,104.317916 C302.61171,101.696302 306.779676,101.684708 309.366648,104.289284 C334.808349,129.864936 348.828125,163.864308 348.828125,200.003168 C348.828125,236.13669 334.80777,270.135822 309.364944,295.712603 C308.107672,296.97386 306.438897,297.65625 304.712328,297.65625 Z M280.899797,267.341759 C279.158984,267.341759 277.480512,266.653458 276.223227,265.373907 C273.63403,262.738724 273.645676,258.467272 276.251296,255.853394 C291.111676,240.9097 299.287475,221.084826 299.287475,200.003784 C299.287475,178.917365 291.112229,159.092263 276.253278,144.150004 C273.645676,141.534136 273.63403,137.262684 276.223227,134.627501 C278.793052,132.012032 282.967123,132.000421 285.548088,134.598916 C302.929568,152.073366 312.51124,175.310432 312.51124,200.003784 C312.51124,224.692704 302.928339,247.929437 285.552206,265.392181 C284.300035,266.657424 282.628958,267.341759 280.899797,267.341759 Z M257.001301,236.945951 C255.26657,236.945951 253.588929,236.255516 252.324731,234.9781 C249.735535,232.342916 249.74718,228.071464 252.352345,225.458045 C259.129082,218.639506 262.854143,209.607242 262.854143,200.003168 C262.854143,190.393098 259.129229,181.36119 252.351829,174.547772 C249.74766,171.925882 249.736028,167.656758 252.324731,165.022076 C254.896476,162.404655 259.072793,162.395942 261.648646,164.998701 C270.94861,174.337583 276.077908,186.780481 276.077908,200.003168 C276.077908,213.220544 270.948013,225.663193 261.653711,234.996374 C260.40154,236.261616 258.730463,236.945951 257.001301,236.945951 Z" id="signal" fill="#FFFFFF" fill-rule="nonzero"></path>
        <path d="M224.643521,226.198903 C224.934266,250.568298 214.416885,274.02589 195.80921,290.503931 C181.000181,303.761144 162.316659,311.37699 142.887314,312.118239 C133.905824,319.432337 123.01553,323.781438 111.354131,324.548926 C110.108984,324.634203 108.863837,324.686681 107.618691,324.686681 C77.8299774,324.686681 52.7627088,300.540317 50.4809932,269.709588 C50.4557111,269.355363 50.4304289,268.856824 50.4051467,268.22053 C50.373544,268.004059 50.3482619,267.781028 50.3482619,267.538318 C49.766772,254.556614 50.0575169,243.831456 50.4304289,237.002778 C50.7717381,230.705437 50.9866366,219.376785 51.0119187,216.739773 L51.0119187,216.57578 C51.1699323,207.35936 53.3694808,198.365971 57.3703837,190.304064 C56.2326862,181.284436 56.2579684,171.635074 57.477833,161.513412 L57.6358465,159.939077 C57.6674492,159.748844 57.6674492,159.525814 57.6864108,159.335581 C57.7180135,159.171588 57.7432957,158.981356 57.7685779,158.791124 C58.773544,150.178199 60.5243341,136.068221 67.9446501,121.604018 C80.2949887,97.3461385 103.725237,82.8753754 130.59386,82.8753754 L131.731558,82.8753754 C140.188442,77.9818173 149.700858,75.3710449 159.478736,75.3710449 L160.515305,75.3710449 C191.625011,75.9483011 216.93246,102.626721 216.93246,134.861231 C216.93246,135.215456 215.870609,173.885061 214.676027,187.116035 C221.116659,198.805473 224.51079,212.062686 224.643521,226.198903" id="scratch-outline-2" fill="#FFFFFF"></path>
        <path d="M198.142122,226.499995 C198.35702,242.643489 191.202167,258.432758 178.504199,269.682694 C167.721354,279.338615 153.942573,284.671675 139.765598,284.671675 C137.325869,284.645436 134.860858,284.507682 132.446411,284.173136 C131.890203,284.947184 131.308713,285.688433 130.701941,286.403444 C125.240993,292.812299 117.713228,296.610383 109.496524,297.102363 C108.86447,297.15484 108.251377,297.181079 107.619323,297.181079 C91.5841084,297.181079 78.0960722,284.146897 76.9014898,267.537662 C76.8762077,267.209676 76.8509255,266.875129 76.8509255,266.520904 L76.8256433,266.271634 C76.2947178,254.444442 76.5601806,244.709804 76.8762077,238.628935 C77.2744018,231.590345 77.4893002,219.625398 77.5145824,217.040865 C77.6473138,208.952719 80.63693,201.612381 85.4911061,196.023492 C83.0766591,187.364649 82.305553,176.967478 83.7908804,164.674545 L83.9804966,162.883739 C84.0057788,162.745985 84.0057788,162.60823 84.0310609,162.470476 C84.8780135,155.267893 86.1484424,144.621452 91.3692099,134.447312 C99.1624379,119.156583 113.472144,110.379665 130.594492,110.379665 C131.548894,110.379665 132.55386,110.405904 133.590429,110.464941 C135.391783,110.576457 137.21842,110.792928 138.994492,111.127474 C144.556569,105.925609 151.951603,102.704781 160.060858,102.875334 C176.810293,103.177082 190.431061,117.52977 190.431061,134.860575 C190.431061,135.241039 188.945734,181.53305 188.231512,185.547604 C187.808036,188.053421 187.093815,190.441162 186.164695,192.697709 C193.875756,201.940368 198.034673,213.465813 198.142122,226.499995" id="scratch-outline-1" fill="#F9A83A"></path>
        <path d="M131.29544,193.227079 C123.350519,191.941372 119.109436,186.42464 121.214176,169.356224 L121.460677,167.296469 C123.230429,152.464921 124.715756,149.165377 131.592506,149.552401 C133.602438,149.683596 135.922077,151.002101 138.235395,152.97658 C140.384379,155.554553 145.156388,158.893456 147.842619,165.505663 C149.770384,170.359863 150.434041,173.528212 150.712144,176.932712 L151.135621,181.111259 L151.135621,181.09158 C151.70447,183.951622 153.81553,186.300005 156.735621,186.811664 C160.496343,187.526675 164.124334,184.929022 164.78167,181.025983 C164.870158,180.560242 166.570384,135.606416 166.570384,134.871727 C166.570384,130.90965 163.511242,127.695383 159.668352,127.629785 C155.838104,127.610106 152.728397,130.844053 152.728397,134.79301 C152.728397,134.878286 152.709436,141.08379 152.583025,147.341772 C147.122077,141.175627 140.131558,135.652334 132.306727,135.173474 C111.360451,134.012402 109.072415,153.999898 107.694537,165.518782 L107.485959,167.558858 C104.660677,190.321119 111.979865,204.680367 129.165418,207.468252 C147.842619,210.511966 160.313047,214.966023 160.426817,226.891611 C160.496343,231.529339 158.145102,236.285143 154.04307,239.945472 C149.100406,244.307692 142.48912,246.269051 136.257065,245.206375 C134.32298,244.898068 132.508984,244.347051 130.770835,243.750115 C128.324786,242.333214 122.162257,238.443294 119.033589,233.94988 C116.397923,230.158356 115.481445,224.202122 115.19702,220.423718 C115.228623,218.731307 115.234944,217.609594 115.234944,217.484959 C115.30447,213.503203 112.226366,210.262697 108.434041,210.17086 C104.584831,210.079024 101.42456,213.293292 101.355034,217.268488 C101.355034,217.399682 101.184379,231.483421 100.685056,239.965151 C99.9708352,253.629068 100.685056,265.20043 100.685056,265.70553 C100.969481,269.674166 104.256163,272.665403 108.086411,272.403013 C111.904018,272.193102 114.811467,268.755804 114.546005,264.780608 C114.546005,264.715011 114.204695,259.106442 114.248939,251.359401 C119.330655,254.724543 126.005147,257.997848 133.950068,259.40163 C144.315756,261.205555 154.915305,258.096244 163.011919,250.873981 C170.26158,244.438887 174.414176,235.64229 174.300406,226.740737 C174.053905,200.167273 145.156388,195.496746 131.29544,193.227079" id="scratch-fill" fill="#FFFFFF"></path>
    </g>
</svg>