<?xml version="1.0" encoding="UTF-8"?>
<svg width="400px" height="400px" viewBox="0 0 400 400" version="1.1" xmlns="http://www.w3.org/2000/svg" xmlns:xlink="http://www.w3.org/1999/xlink">
    <!-- Generator: Sketch 51.2 (57519) - http://www.bohemiancoding.com/sketch -->
    <title>Windows Tray 400x400</title>
    <desc>Created with Sketch.</desc>
    <defs></defs>
    <g id="Windows-Tray-400x400" stroke="none" stroke-width="1" fill="none" fill-rule="evenodd">
        <rect id="bg" fill="#0FBD8C" x="0" y="0" width="400" height="400"></rect>
        <path d="M324.991414,236.741971 C325.412159,270.948839 310.351409,303.880856 283.720177,327.013068 C262.510815,345.620047 235.764835,356.315168 207.957431,357.356458 C195.096028,367.623384 179.499784,373.725149 162.813429,374.815098 C161.025264,374.922147 159.246661,375 157.458496,375 C114.819838,375 78.9322212,341.104546 75.6618868,297.818018 C75.6236373,297.321702 75.5853878,296.62102 75.5471383,295.735437 C75.5088887,295.424023 75.4706392,295.122341 75.4706392,294.772001 C74.638712,276.544557 75.0594568,261.489643 75.5853878,251.913666 C76.0826316,243.067566 76.3790654,227.165995 76.4173149,223.458223 L76.4173149,223.224663 C76.6468121,210.291255 79.7928355,197.669262 85.5302642,186.351314 C83.895097,173.690393 83.9333466,160.134158 85.6832623,145.9259 L85.9127595,143.72654 C85.9414466,143.463784 85.9414466,143.15237 85.9796961,142.879883 C86.0179457,142.646323 86.0561952,142.373836 86.0944447,142.101349 C87.5383643,130.024329 90.0437082,110.220353 100.667514,89.9103295 C118.348356,55.849437 151.883627,35.5394133 190.353087,35.5394133 L191.978692,35.5394133 C204.084666,28.6688447 217.701497,25 231.700823,25 L233.182992,25 C277.724564,25.8174614 313.956426,63.2649798 313.956426,108.517308 C313.956426,109.013624 312.436008,163.306687 310.724341,181.874739 C319.952039,198.282358 324.800167,216.889337 324.991414,236.741971" id="scratch-outline-2" fill="#FFFFFF"></path>
        <path d="M286.993344,237.698299 C287.299129,260.381083 277.055333,282.557424 258.899351,298.364276 C243.466767,311.931093 223.753193,319.420599 203.475828,319.420599 C199.987968,319.381642 196.461885,319.186857 193.012249,318.72911 C192.219119,319.81017 191.37821,320.852273 190.508634,321.855419 C182.692006,330.854514 171.932198,336.19164 160.178589,336.892868 C159.27079,336.961043 158.391658,337 157.483859,337 C134.549987,337 115.247311,318.690153 113.546383,295.345099 C113.50816,294.887353 113.469936,294.419867 113.469936,293.913424 L113.431713,293.57255 C112.676807,276.957338 113.049482,263.273649 113.50816,254.74204 C114.071951,244.846931 114.377736,228.036933 114.415959,224.404182 C114.607074,213.048181 118.888064,202.724544 125.82556,194.884424 C122.375923,182.710323 121.277009,168.101403 123.398392,150.833659 L123.665954,148.320925 C123.704177,148.12614 123.704177,147.941093 123.7424,147.746308 C124.955984,137.617456 126.771582,122.667661 134.244202,108.370398 C145.395797,86.8855457 165.864278,74.5653563 190.355742,74.5653563 C191.722218,74.5653563 193.165141,74.5945742 194.636731,74.6724884 C197.216792,74.8283169 199.835076,75.1399738 202.376913,75.59772 C210.336878,68.2932599 220.90557,63.7839732 232.515843,64.0079766 C256.472183,64.4365049 275.956419,84.6065542 275.956419,108.945015 C275.956419,109.490415 273.835035,174.519589 272.812567,180.158632 C272.210553,183.684251 271.188084,187.044303 269.859831,190.209569 C280.887201,203.19203 286.840452,219.378713 286.993344,237.698299" id="scratch-outline-1" fill="#F9A83A"></path>
        <path d="M191.341344,189.963879 C179.954607,188.165814 173.87338,180.429274 176.890052,156.50043 L177.234814,153.604087 C179.782226,132.814567 181.917837,128.197914 191.76272,128.732474 C194.654894,128.91714 197.968444,130.773521 201.301147,133.533793 C204.375279,137.149362 211.213067,141.834051 215.072491,151.106235 C217.840168,157.900005 218.788264,162.341712 219.18091,167.113873 L219.793821,172.974594 L219.793821,172.955155 C220.607844,176.959495 223.634092,180.254327 227.819125,180.973553 C233.201249,181.974638 238.410993,178.329912 239.35909,172.857962 C239.47401,172.206771 241.925654,109.18702 241.925654,108.156778 C241.925654,102.607074 237.529933,98.0876134 232.023311,98.00014 C226.526266,97.9709822 222.063507,102.500162 222.063507,108.040147 C222.063507,108.166497 222.044354,116.865244 221.862396,125.632026 C214.038204,116.991595 204.02094,109.245336 192.787431,108.574706 C162.764369,106.951588 159.489126,134.972245 157.506742,151.115954 L157.209863,153.97342 C153.158904,185.891504 163.645428,206.020114 188.286366,209.93698 C215.072491,214.20374 232.942678,220.443511 233.105482,237.170376 C233.201249,243.672568 229.839816,250.339988 223.959701,255.462043 C216.872917,261.575465 207.382374,264.335738 198.456857,262.848689 C195.679604,262.411322 193.084309,261.6435 190.594359,260.797923 C187.089274,258.815192 178.240371,253.352962 173.768036,247.054874 C169.985226,241.748153 168.663637,233.38958 168.251837,228.092577 C168.309298,225.721075 168.318875,224.156273 168.318875,223.981326 C168.405065,218.402465 164.009344,213.853846 158.569759,213.717776 C153.043983,213.601145 148.514188,218.101167 148.418421,223.670309 C148.418421,223.854975 148.169426,243.604533 147.451171,255.500921 C146.436037,274.657603 147.451171,290.879066 147.451171,291.588572 C147.86297,297.147995 152.574723,301.34672 158.062192,300.977388 C163.540084,300.68581 167.705964,295.855332 167.322894,290.28619 C167.322894,290.198717 166.834481,282.335827 166.901518,271.469682 C174.179836,276.193248 183.75657,280.771024 195.152884,282.744036 C210.006399,285.280766 225.204676,280.916813 236.811678,270.779614 C247.212012,261.760131 253.16874,249.436096 252.996359,236.956552 C252.64202,199.692869 211.213067,193.151799 191.341344,189.963879" id="scratch-fill" fill="#FFFFFF"></path>
    </g>
</svg>