<?xml version="1.0" encoding="UTF-8"?>
<svg width="1024px" height="1024px" viewBox="0 0 1024 1024" version="1.1" xmlns="http://www.w3.org/2000/svg" xmlns:xlink="http://www.w3.org/1999/xlink">
    <!-- Generator: Sketch 51.2 (57519) - http://www.bohemiancoding.com/sketch -->
    <title>Mac Glyph Icon 1024x1024</title>
    <desc>Created with Sketch.</desc>
    <defs></defs>
    <g id="Mac-Glyph-Icon-1024x1024" stroke="none" stroke-width="1" fill="none" fill-rule="evenodd">
        <path d="M809.189333,954 C800.7425,954 792.573653,950.832615 786.417964,944.972442 C773.810527,932.883483 773.867236,913.259851 786.556391,901.26698 C898.145099,795.591683 959.580549,655.223008 959.580549,506.014534 C959.580549,356.791698 898.155439,216.446648 786.56429,110.741301 C773.864867,98.7387178 773.808088,79.104406 786.418066,67.0565276 C798.960906,55.0298203 819.255758,54.9766331 831.852361,66.9251775 C955.734261,184.253991 1024,340.22679 1024,506.014534 C1024,671.777789 955.731443,827.749485 831.844063,945.083481 C825.722099,950.869522 817.596423,954 809.189333,954 Z M693.169255,815.75 C684.697939,815.75 676.529995,812.58852 670.411666,806.711334 C657.811861,794.6075 657.868532,774.988016 670.548262,762.982044 C742.863319,694.34319 782.649202,603.284272 782.649202,506.455566 C782.649202,409.602162 742.866005,318.542197 670.557904,249.909934 C657.868532,237.894821 657.811861,218.275337 670.411666,206.171503 C682.917205,194.158225 703.229482,194.104894 715.789231,206.040207 C800.372718,286.303244 847,393.034925 847,506.455566 C847,619.855851 800.366733,726.586003 715.809272,806.795268 C709.715832,812.606738 701.583872,815.75 693.169255,815.75 Z M576.169013,674.875 C567.727427,674.875 559.563655,671.710991 553.411789,665.857064 C540.812187,653.780991 540.868857,634.206504 553.546164,622.230171 C586.523265,590.983324 604.650236,549.591795 604.650236,505.579875 C604.650236,461.540475 586.523979,420.150578 553.543654,388.9272 C540.871188,376.912047 540.814588,357.348227 553.411789,345.274455 C565.926466,333.279779 586.249349,333.239851 598.784021,345.167334 C644.039701,387.963979 669,444.985184 669,505.579875 C669,566.150225 644.036796,623.170287 598.808666,665.940806 C592.715324,671.738947 584.583495,674.875 576.169013,674.875 Z" id="signal" fill="#000000" fill-rule="nonzero"></path>
        <path d="M187.403126,466.940892 C139.261897,459.55286 113.563596,427.852175 126.317001,329.772288 L127.810642,317.93636 C138.534226,232.710141 147.534376,213.75004 189.203156,215.973988 C201.382082,216.727869 215.437636,224.30437 229.454891,235.650276 C242.476385,250.464032 271.391761,269.650298 287.668628,307.645888 C299.349674,335.539476 303.371018,353.745696 305.056152,373.308902 L307.622152,397.320004 L307.622152,397.206922 C311.069018,413.641522 323.860721,427.135988 341.554633,430.076123 C364.342247,434.184773 386.325593,419.257934 390.308638,396.829981 C390.844817,394.153705 401.147117,135.836463 401.147117,131.614731 C401.147117,108.847532 382.610637,90.3774538 359.325142,90.0005134 C336.116245,89.8874313 317.273377,108.470592 317.273377,131.162403 C317.273377,131.652425 317.158482,167.310985 316.392511,203.271097 C283.302598,167.838702 240.944444,136.100322 193.530888,133.348657 C66.6096217,126.676812 52.7455606,241.530546 44.3964852,307.721276 L43.1326343,319.444122 C26.0131999,450.242433 70.3628758,532.754682 174.496528,548.774648 C287.668628,566.264682 363.231591,591.858933 363.920964,660.386694 C364.342247,687.036379 350.095201,714.364556 325.239467,735.397829 C295.290032,760.464364 255.229789,771.734882 217.467457,765.628448 C205.748113,763.856828 194.75644,760.690529 184.224349,757.260371 C169.402826,749.118459 132.061777,726.765895 113.104014,700.945479 C97.1335351,679.158325 91.5802509,644.932138 89.8568179,623.220373 C90.0483105,613.495311 90.086609,607.04963 90.086609,606.333444 C90.5078926,583.453163 71.8565177,564.832308 48.877411,564.304592 C25.5536177,563.776875 6.40436214,582.246954 5.98307852,605.08954 C5.98307852,605.843421 4.94901872,686.77252 1.92343634,735.510911 C-2.40429542,814.027592 1.92343634,880.519875 1.92343634,883.422316 C3.64686934,906.227209 23.5620951,923.41569 46.7709929,921.907929 C69.9032936,920.701719 87.5206088,900.950044 85.9120713,878.107457 C85.9120713,877.730516 83.8439517,845.502114 84.1120413,800.985455 C114.904044,820.322497 155.347272,839.131821 203.488501,847.198346 C266.298059,857.564206 330.524662,839.697232 379.585055,798.196096 C423.513447,761.218245 448.675569,710.67054 447.986196,659.519731 C446.492554,506.821184 271.391761,479.983029 187.403126,466.940892" id="scratch-fill" fill="#000000"></path>
    </g>
</svg>